<?xml version="1.0" standalone="no"?>
<!DOCTYPE svg PUBLIC "-//W3C//DTD SVG 20010904//EN"
 "http://www.w3.org/TR/2001/REC-SVG-20010904/DTD/svg10.dtd">
<svg version="1.0" xmlns="http://www.w3.org/2000/svg"
 width="342.000000pt" height="342.000000pt" viewBox="0 0 342.000000 342.000000"
 preserveAspectRatio="xMidYMid meet">
<metadata>
Created by potrace 1.14, written by Peter Selinger 2001-2017
</metadata>
<g transform="translate(0.000000,342.000000) scale(0.100000,-0.100000)"
fill="#000000" stroke="none">
<path d="M1540 3409 c-111 -13 -147 -19 -247 -44 -327 -79 -646 -275 -871
-536 -198 -229 -321 -481 -388 -794 -18 -83 -27 -179 -28 -290 -1 -217 18
-354 75 -538 161 -521 563 -935 1079 -1110 58 -20 116 -38 130 -41 14 -2 48
-9 75 -15 106 -23 175 -30 310 -35 100 -3 269 10 350 28 6 1 37 8 70 15 78 16
213 62 307 103 615 273 1014 887 1012 1558 -1 120 -11 237 -29 316 -3 12 -7
39 -11 60 -21 137 -144 422 -245 573 -103 152 -250 307 -393 415 -225 169
-515 290 -786 327 -98 13 -330 18 -410 8z"/>
</g>
</svg>
