<?xml version="1.0" encoding="UTF-8"?><svg id="_レイヤー_2" xmlns="http://www.w3.org/2000/svg" viewBox="0 0 200 40"><defs><style>.cls-1{letter-spacing:-.05em;}.cls-2,.cls-3{stroke-width:0px;}.cls-4{letter-spacing:-.01em;}.cls-5{letter-spacing:-.02em;}.cls-6{font-family:KozGoPr6N-Regular-90ms-RKSJ-H, 'Kozuka Gothic Pr6N';font-size:23px;}.cls-6,.cls-3{fill:#fff;}.cls-7{letter-spacing:-.01em;}.cls-8{letter-spacing:0em;}.cls-9{letter-spacing:.01em;}.cls-10{letter-spacing:-.03em;}.cls-11{letter-spacing:.02em;}.cls-12{letter-spacing:0em;}</style></defs><g id="_レイヤー_1-2"><rect class="cls-2" x=".12" y=".12" width="199.75" height="39.75"/><path class="cls-3" d="M199.75.25v39.5H.25V.25h199.5M200,0H0v40h200V0h0Z"/><text id="White_handle" class="cls-6" transform="translate(50.85 28.87)"><tspan class="cls-8" x="0" y="0">@</tspan><tspan class="cls-4" x="18.39" y="0">d</tspan><tspan class="cls-7" x="32" y="0">w</tspan><tspan class="cls-5" x="50.15" y="0">a</tspan><tspan class="cls-11" x="61.65" y="0">r</tspan><tspan class="cls-9" x="70.16" y="0">f</tspan><tspan class="cls-1" x="77.6" y="0">0</tspan><tspan class="cls-10" x="89.2" y="0">2</tspan><tspan class="cls-12" x="101.25" y="0">0</tspan><tspan x="114.06" y="0">0</tspan></text><path class="cls-3" d="M34.44,18.99l7.53-8.75h-1.78l-6.54,7.6-5.22-7.6h-6.02l7.89,11.49-7.89,9.18h1.78l6.9-8.02,5.51,8.02h6.02l-8.19-11.92h0ZM32,21.83l-.8-1.14-6.36-9.1h2.74l5.14,7.35.8,1.14,6.68,9.55h-2.74l-5.45-7.79h0Z"/></g></svg>